<svg data-v-423bf9ae="" xmlns="http://www.w3.org/2000/svg" viewBox="0 0 260.7156460964157 60" class="font"><!----><!----><!----><g data-v-423bf9ae="" id="140feb70-c7b4-4490-9ea9-ca57835507e8" fill="black" transform="matrix(3.766478496080087,0,0,3.766478496080087,-0.790964036426999,1.6949156588068242)"><path d="M3.28 5.80L3.28 5.80Q4.38 4.34 4.98 3.66L4.98 3.66L4.98 3.66Q5.59 2.98 5.96 2.98L5.96 2.98L5.96 2.98Q6.23 2.98 6.59 3.21L6.59 3.21L6.59 3.21Q6.94 3.43 7.20 3.72L7.20 3.72L7.20 3.72Q7.46 4.00 7.45 4.17L7.45 4.17L7.45 4.17Q7.43 4.52 7.35 4.93L7.35 4.93L7.35 4.93Q7.27 5.33 7.11 5.92L7.11 5.92L7.11 5.92Q8.27 4.44 8.94 3.71L8.94 3.71L8.94 3.71Q9.60 2.98 9.98 2.98L9.98 2.98L9.98 2.98Q10.25 2.98 10.63 3.25L10.63 3.25L10.63 3.25Q11.00 3.51 11.28 3.86L11.28 3.86L11.28 3.86Q11.55 4.20 11.55 4.38L11.55 4.38L11.55 4.38Q11.54 4.62 11.35 5.19L11.35 5.19L11.35 5.19Q11.17 5.77 10.84 6.72L10.84 6.72L10.84 6.72Q10.39 7.95 10.26 8.39L10.26 8.39L10.26 8.39Q10.71 8.15 10.96 7.99L10.96 7.99L10.96 7.99Q11.20 7.83 11.54 7.55L11.54 7.55L11.54 7.55Q12.15 7.76 12.46 8.13L12.46 8.13L12.46 8.13Q12.77 8.50 12.77 8.97L12.77 8.97L12.77 8.97Q12.77 9.31 12.29 9.67L12.29 9.67L12.29 9.67Q11.80 10.02 11.14 10.26L11.14 10.26L11.14 10.26Q10.49 10.50 10.02 10.50L10.02 10.50L10.02 10.50Q9.72 10.50 9.30 10.25L9.30 10.25L9.30 10.25Q8.88 10.00 8.57 9.67L8.57 9.67L8.57 9.67Q8.26 9.34 8.26 9.16L8.26 9.16L8.26 9.16Q8.26 9.04 8.40 8.62L8.40 8.62L8.40 8.62Q8.54 8.19 8.58 8.04L8.58 8.04L8.58 8.04Q8.85 7.20 8.98 6.70L8.98 6.70L8.98 6.70Q9.11 6.20 9.11 5.96L9.11 5.96L9.11 5.96Q9.11 5.80 9.04 5.80L9.04 5.80L9.04 5.80Q8.46 5.80 6.96 7.76L6.96 7.76L6.96 7.76Q6.85 8.16 6.75 8.78L6.75 8.78L6.75 8.78Q6.58 9.67 6.45 10.09L6.45 10.09L6.45 10.09Q6.33 10.50 6.12 10.50L6.12 10.50L6.12 10.50Q5.82 10.50 5.39 10.25L5.39 10.25L5.39 10.25Q4.96 10.00 4.63 9.67L4.63 9.67L4.63 9.67Q4.31 9.34 4.31 9.13L4.31 9.13L4.31 9.13Q4.31 8.99 4.62 8.04L4.62 8.04L4.62 8.04Q4.87 7.24 5.01 6.73L5.01 6.73L5.01 6.73Q5.15 6.22 5.15 5.96L5.15 5.96L5.15 5.96Q5.15 5.80 5.07 5.80L5.07 5.80L5.07 5.80Q4.51 5.80 2.98 7.76L2.98 7.76L2.98 7.76Q2.93 7.98 2.86 8.32L2.86 8.32L2.86 8.32Q2.80 8.65 2.77 8.79L2.77 8.79L2.77 8.79Q2.62 9.62 2.48 10.06L2.48 10.06L2.48 10.06Q2.35 10.50 2.14 10.50L2.14 10.50L2.14 10.50Q1.78 10.50 1.32 10.26L1.32 10.26L1.32 10.26Q0.87 10.01 0.54 9.68L0.54 9.68L0.54 9.68Q0.21 9.35 0.21 9.13L0.21 9.13L0.21 9.13Q0.21 8.88 0.39 8.39L0.39 8.39L0.39 8.39Q0.57 7.90 0.94 7.04L0.94 7.04L0.94 7.04Q1.22 6.38 1.36 6.01L1.36 6.01L1.36 6.01Q1.50 5.64 1.50 5.49L1.50 5.49L1.50 5.49Q1.50 5.38 1.36 5.24L1.36 5.24L1.36 5.24Q1.23 5.11 0.97 4.91L0.97 4.91L0.97 4.91Q0.66 4.68 0.51 4.54L0.51 4.54L0.51 4.54Q0.36 4.40 0.36 4.24L0.36 4.24L0.36 4.24Q0.36 3.95 0.64 3.56L0.64 3.56L0.64 3.56Q0.91 3.16 1.28 2.88L1.28 2.88L1.28 2.88Q1.65 2.60 1.92 2.60L1.92 2.60L1.92 2.60Q2.21 2.60 2.60 2.87L2.60 2.87L2.60 2.87Q2.98 3.14 3.27 3.48L3.27 3.48L3.27 3.48Q3.56 3.82 3.56 4.00L3.56 4.00L3.56 4.00Q3.56 4.34 3.48 4.83L3.48 4.83L3.48 4.83Q3.40 5.32 3.28 5.80L3.28 5.80ZM18.48 8.26L18.48 8.26Q17.61 8.96 16.67 9.51L16.67 9.51L16.67 9.51Q15.74 10.05 15.23 10.05L15.23 10.05L15.23 10.05Q15.02 10.05 14.68 9.82L14.68 9.82L14.68 9.82Q14.34 9.59 14.08 9.27L14.08 9.27L14.08 9.27Q13.82 8.95 13.82 8.68L13.82 8.68L13.82 8.68Q13.82 8.43 13.94 8.02L13.94 8.02L13.94 8.02Q14.06 7.62 14.32 6.85L14.32 6.85L14.32 6.85Q14.71 5.75 14.71 5.49L14.71 5.49L14.71 5.49Q14.71 5.38 14.58 5.24L14.58 5.24L14.58 5.24Q14.45 5.11 14.18 4.91L14.18 4.91L14.18 4.91Q13.87 4.68 13.73 4.54L13.73 4.54L13.73 4.54Q13.58 4.40 13.58 4.24L13.58 4.24L13.58 4.24Q13.58 3.95 13.85 3.56L13.85 3.56L13.85 3.56Q14.13 3.16 14.50 2.88L14.50 2.88L14.50 2.88Q14.87 2.60 15.13 2.60L15.13 2.60L15.13 2.60Q15.43 2.60 15.81 2.87L15.81 2.87L15.81 2.87Q16.20 3.14 16.48 3.48L16.48 3.48L16.48 3.48Q16.77 3.82 16.77 4.00L16.77 4.00L16.77 4.00Q16.77 4.79 16.55 5.87L16.55 5.87L16.55 5.87Q16.34 6.96 15.93 8.09L15.93 8.09L15.93 8.09Q17.07 7.50 18.20 6.58L18.20 6.58L18.20 6.58Q18.38 4.79 18.55 3.88L18.55 3.88L18.55 3.88Q18.72 2.98 19.03 2.98L19.03 2.98L19.03 2.98Q19.24 2.98 19.66 3.27L19.66 3.27L19.66 3.27Q20.09 3.56 20.43 3.91L20.43 3.91L20.43 3.91Q20.78 4.27 20.78 4.47L20.78 4.47L20.78 4.47Q20.78 4.76 20.34 7.13L20.34 7.13L20.34 7.13Q19.91 9.51 19.43 11.70L19.43 11.70L19.43 11.70Q18.96 13.89 18.75 14.22L18.75 14.22L18.75 14.22Q18.44 14.73 17.74 15.11L17.74 15.11L17.74 15.11Q17.04 15.48 16.38 15.48L16.38 15.48L16.38 15.48Q15.82 15.48 15.18 15.11L15.18 15.11L15.18 15.11Q14.55 14.73 14.12 14.18L14.12 14.18L14.12 14.18Q13.69 13.62 13.69 13.16L13.69 13.16L13.69 13.16Q13.69 12.54 15.09 11.36L15.09 11.36L15.09 11.36Q16.49 10.18 18.73 8.64L18.73 8.64L18.48 8.26ZM18.26 10.54L18.26 10.54Q15.79 12.47 15.79 13.23L15.79 13.23L15.79 13.23Q15.79 13.50 16.07 13.72L16.07 13.72L16.07 13.72Q16.35 13.94 16.77 14.01L16.77 14.01L16.77 14.01Q17.23 13.36 17.55 12.59L17.55 12.59L17.55 12.59Q17.86 11.83 18.26 10.54L18.26 10.54ZM27.48 10.58L27.48 10.58Q26.49 10.01 25.72 9.16L25.72 9.16L25.72 9.16Q24.95 8.30 24.47 7.21L24.47 7.21L24.42 7.80L24.42 7.80Q24.28 9.16 24.14 9.83L24.14 9.83L24.14 9.83Q24.01 10.50 23.77 10.50L23.77 10.50L23.77 10.50Q23.45 10.50 23.01 10.26L23.01 10.26L23.01 10.26Q22.57 10.02 22.24 9.70L22.24 9.70L22.24 9.70Q21.91 9.38 21.91 9.17L21.91 9.17L21.91 9.17Q21.91 8.81 22.60 5.46L22.60 5.46L22.60 5.46Q22.68 5.07 22.87 4.12L22.87 4.12L22.87 4.12Q23.06 3.18 23.13 2.76L23.13 2.76L22.61 2.84L22.61 2.84Q22.18 2.44 22.18 1.82L22.18 1.82L22.18 1.82Q22.18 1.39 22.41 0.92L22.41 0.92L22.41 0.92Q23.55 0.63 24.71 0.63L24.71 0.63L24.71 0.63Q25.94 0.63 27.00 0.95L27.00 0.95L27.00 0.95Q28.06 1.27 28.71 1.94L28.71 1.94L28.71 1.94Q29.37 2.60 29.37 3.60L29.37 3.60L29.37 3.60Q29.37 4.76 28.46 5.59L28.46 5.59L28.46 5.59Q27.55 6.43 25.79 6.71L25.79 6.71L25.79 6.71Q26.49 7.36 27.20 7.76L27.20 7.76L27.20 7.76Q27.90 8.16 28.98 8.53L28.98 8.53L28.98 8.53Q29.04 8.75 29.04 9.02L29.04 9.02L29.04 9.02Q29.04 9.66 28.64 10.08L28.64 10.08L28.64 10.08Q28.25 10.50 27.48 10.58L27.48 10.58ZM24.74 5.35L24.74 5.35Q25.84 5.24 26.55 4.76L26.55 4.76L26.55 4.76Q27.26 4.28 27.26 3.63L27.26 3.63L27.26 3.63Q27.26 3.21 26.85 2.92L26.85 2.92L26.85 2.92Q26.43 2.63 25.73 2.63L25.73 2.63L25.73 2.63Q25.48 2.63 25.19 2.67L25.19 2.67L25.19 2.67Q24.96 3.96 24.98 3.91L24.98 3.91L24.98 3.91Q24.85 4.59 24.74 5.35L24.74 5.35ZM32.96 2.59L32.96 2.59Q33.95 2.70 34.77 3.18L34.77 3.18L34.77 3.18Q35.59 3.67 36.05 4.34L36.05 4.34L36.05 4.34Q36.51 5.01 36.51 5.68L36.51 5.68L36.51 5.68Q36.51 6.69 35.99 7.83L35.99 7.83L35.99 7.83Q35.48 8.96 34.55 9.73L34.55 9.73L34.55 9.73Q33.63 10.50 32.49 10.50L32.49 10.50L32.49 10.50Q31.93 10.50 31.30 10.09L31.30 10.09L31.30 10.09Q30.67 9.67 30.25 9.08L30.25 9.08L30.25 9.08Q29.82 8.48 29.82 8.02L29.82 8.02L29.82 8.02Q29.82 7.17 30.03 6.26L30.03 6.26L30.03 6.26Q30.24 5.36 30.67 4.51L30.67 4.51L30.67 4.51Q31.08 4.28 31.49 4.28L31.49 4.28L31.49 4.28Q31.67 4.28 31.82 4.33L31.82 4.33L31.82 4.33Q31.77 4.16 31.77 3.93L31.77 3.93L31.77 3.93Q31.77 3.49 32.08 3.12L32.08 3.12L32.08 3.12Q32.40 2.76 32.96 2.59L32.96 2.59ZM31.99 8.90L31.99 8.90Q33.15 8.51 33.80 7.56L33.80 7.56L33.80 7.56Q34.44 6.61 34.65 5.29L34.65 5.29L34.65 5.29Q34.02 4.84 32.94 4.84L32.94 4.84L32.94 4.84Q32.68 4.84 32.54 4.86L32.54 4.86L32.54 4.86Q32.69 5.14 32.69 5.49L32.69 5.49L32.69 5.49Q32.33 6.06 32.13 6.75L32.13 6.75L32.13 6.75Q31.93 7.45 31.93 8.15L31.93 8.15L31.93 8.15Q31.93 8.57 31.99 8.90L31.99 8.90ZM40.32 2.59L40.32 2.59Q41.31 2.70 42.13 3.18L42.13 3.18L42.13 3.18Q42.95 3.67 43.41 4.34L43.41 4.34L43.41 4.34Q43.88 5.01 43.88 5.68L43.88 5.68L43.88 5.68Q43.88 6.69 43.36 7.83L43.36 7.83L43.36 7.83Q42.84 8.96 41.92 9.73L41.92 9.73L41.92 9.73Q40.99 10.50 39.86 10.50L39.86 10.50L39.86 10.50Q39.30 10.50 38.67 10.09L38.67 10.09L38.67 10.09Q38.04 9.67 37.61 9.08L37.61 9.08L37.61 9.08Q37.18 8.48 37.18 8.02L37.18 8.02L37.18 8.02Q37.18 7.17 37.39 6.26L37.39 6.26L37.39 6.26Q37.60 5.36 38.04 4.51L38.04 4.51L38.04 4.51Q38.44 4.28 38.85 4.28L38.85 4.28L38.85 4.28Q39.03 4.28 39.19 4.33L39.19 4.33L39.19 4.33Q39.13 4.16 39.13 3.93L39.13 3.93L39.13 3.93Q39.13 3.49 39.45 3.12L39.45 3.12L39.45 3.12Q39.76 2.76 40.32 2.59L40.32 2.59ZM39.35 8.90L39.35 8.90Q40.52 8.51 41.16 7.56L41.16 7.56L41.16 7.56Q41.80 6.61 42.01 5.29L42.01 5.29L42.01 5.29Q41.38 4.84 40.31 4.84L40.31 4.84L40.31 4.84Q40.04 4.84 39.90 4.86L39.90 4.86L39.90 4.86Q40.05 5.14 40.05 5.49L40.05 5.49L40.05 5.49Q39.69 6.06 39.49 6.75L39.49 6.75L39.49 6.75Q39.30 7.45 39.30 8.15L39.30 8.15L39.30 8.15Q39.30 8.57 39.35 8.90L39.35 8.90ZM47.45 5.80L47.45 5.80Q48.55 4.34 49.15 3.66L49.15 3.66L49.15 3.66Q49.76 2.98 50.13 2.98L50.13 2.98L50.13 2.98Q50.40 2.98 50.76 3.21L50.76 3.21L50.76 3.21Q51.11 3.43 51.37 3.72L51.37 3.72L51.37 3.72Q51.63 4.00 51.62 4.17L51.62 4.17L51.62 4.17Q51.60 4.52 51.52 4.93L51.52 4.93L51.52 4.93Q51.44 5.33 51.28 5.92L51.28 5.92L51.28 5.92Q52.44 4.44 53.11 3.71L53.11 3.71L53.11 3.71Q53.77 2.98 54.15 2.98L54.15 2.98L54.15 2.98Q54.42 2.98 54.80 3.25L54.80 3.25L54.80 3.25Q55.17 3.51 55.45 3.86L55.45 3.86L55.45 3.86Q55.72 4.20 55.72 4.38L55.72 4.38L55.72 4.38Q55.71 4.62 55.52 5.19L55.52 5.19L55.52 5.19Q55.34 5.77 55.01 6.72L55.01 6.72L55.01 6.72Q54.56 7.95 54.43 8.39L54.43 8.39L54.43 8.39Q54.88 8.15 55.13 7.99L55.13 7.99L55.13 7.99Q55.37 7.83 55.71 7.55L55.71 7.55L55.71 7.55Q56.32 7.76 56.63 8.13L56.63 8.13L56.63 8.13Q56.94 8.50 56.94 8.97L56.94 8.97L56.94 8.97Q56.94 9.31 56.45 9.67L56.45 9.67L56.45 9.67Q55.97 10.02 55.31 10.26L55.31 10.26L55.31 10.26Q54.66 10.50 54.19 10.50L54.19 10.50L54.19 10.50Q53.89 10.50 53.47 10.25L53.47 10.25L53.47 10.25Q53.05 10.00 52.74 9.67L52.74 9.67L52.74 9.67Q52.43 9.34 52.43 9.16L52.43 9.16L52.43 9.16Q52.43 9.04 52.57 8.62L52.57 8.62L52.57 8.62Q52.71 8.19 52.75 8.04L52.75 8.04L52.75 8.04Q53.02 7.20 53.15 6.70L53.15 6.70L53.15 6.70Q53.28 6.20 53.28 5.96L53.28 5.96L53.28 5.96Q53.28 5.80 53.21 5.80L53.21 5.80L53.21 5.80Q52.63 5.80 51.13 7.76L51.13 7.76L51.13 7.76Q51.02 8.16 50.92 8.78L50.92 8.78L50.92 8.78Q50.75 9.67 50.62 10.09L50.62 10.09L50.62 10.09Q50.50 10.50 50.29 10.50L50.29 10.50L50.29 10.50Q49.99 10.50 49.56 10.25L49.56 10.25L49.56 10.25Q49.13 10.00 48.80 9.67L48.80 9.67L48.80 9.67Q48.48 9.34 48.48 9.13L48.48 9.13L48.48 9.13Q48.48 8.99 48.79 8.04L48.79 8.04L48.79 8.04Q49.04 7.24 49.18 6.73L49.18 6.73L49.18 6.73Q49.32 6.22 49.32 5.96L49.32 5.96L49.32 5.96Q49.32 5.80 49.24 5.80L49.24 5.80L49.24 5.80Q48.68 5.80 47.15 7.76L47.15 7.76L47.15 7.76Q47.10 7.98 47.03 8.32L47.03 8.32L47.03 8.32Q46.97 8.65 46.94 8.79L46.94 8.79L46.94 8.79Q46.79 9.62 46.66 10.06L46.66 10.06L46.66 10.06Q46.52 10.50 46.31 10.50L46.31 10.50L46.31 10.50Q45.95 10.50 45.49 10.26L45.49 10.26L45.49 10.26Q45.04 10.01 44.71 9.68L44.71 9.68L44.71 9.68Q44.38 9.35 44.38 9.13L44.38 9.13L44.38 9.13Q44.38 8.88 44.56 8.39L44.56 8.39L44.56 8.39Q44.74 7.90 45.11 7.04L45.11 7.04L45.11 7.04Q45.39 6.38 45.53 6.01L45.53 6.01L45.53 6.01Q45.67 5.64 45.67 5.49L45.67 5.49L45.67 5.49Q45.67 5.38 45.54 5.24L45.54 5.24L45.54 5.24Q45.40 5.11 45.14 4.91L45.14 4.91L45.14 4.91Q44.83 4.68 44.68 4.54L44.68 4.54L44.68 4.54Q44.53 4.40 44.53 4.24L44.53 4.24L44.53 4.24Q44.53 3.95 44.81 3.56L44.81 3.56L44.81 3.56Q45.08 3.16 45.45 2.88L45.45 2.88L45.45 2.88Q45.82 2.60 46.09 2.60L46.09 2.60L46.09 2.60Q46.38 2.60 46.77 2.87L46.77 2.87L46.77 2.87Q47.15 3.14 47.44 3.48L47.44 3.48L47.44 3.48Q47.73 3.82 47.73 4.00L47.73 4.00L47.73 4.00Q47.73 4.34 47.65 4.83L47.65 4.83L47.65 4.83Q47.57 5.32 47.45 5.80L47.45 5.80ZM60.48 2.20L60.48 2.20Q60.21 2.20 59.84 1.98L59.84 1.98L59.84 1.98Q59.47 1.76 59.21 1.46L59.21 1.46L59.21 1.46Q58.94 1.16 58.94 0.92L58.94 0.92L58.94 0.92Q58.94 0.55 59.14 0.17L59.14 0.17L59.14 0.17Q59.33-0.21 59.63-0.38L59.63-0.38L59.63-0.38Q59.77-0.45 60.07-0.45L60.07-0.45L60.07-0.45Q60.58-0.45 61.09-0.22L61.09-0.22L61.09-0.22Q61.60 0 61.71 0.34L61.71 0.34L61.71 0.34Q61.74 0.41 61.74 0.55L61.74 0.55L61.74 0.55Q61.74 0.87 61.54 1.26L61.54 1.26L61.54 1.26Q61.35 1.65 61.05 1.92L61.05 1.92L61.05 1.92Q60.76 2.20 60.48 2.20L60.48 2.20ZM59.53 10.50L59.53 10.50Q59.16 10.50 58.71 10.26L58.71 10.26L58.71 10.26Q58.25 10.01 57.93 9.68L57.93 9.68L57.93 9.68Q57.60 9.35 57.60 9.13L57.60 9.13L57.60 9.13Q57.60 8.88 57.78 8.39L57.78 8.39L57.78 8.39Q57.96 7.90 58.32 7.04L58.32 7.04L58.32 7.04Q58.60 6.38 58.74 6.01L58.74 6.01L58.74 6.01Q58.88 5.64 58.88 5.49L58.88 5.49L58.88 5.49Q58.88 5.38 58.75 5.24L58.75 5.24L58.75 5.24Q58.62 5.11 58.35 4.91L58.35 4.91L58.35 4.91Q58.04 4.68 57.90 4.54L57.90 4.54L57.90 4.54Q57.75 4.40 57.75 4.24L57.75 4.24L57.75 4.24Q57.75 3.95 58.02 3.56L58.02 3.56L58.02 3.56Q58.30 3.16 58.67 2.88L58.67 2.88L58.67 2.88Q59.04 2.60 59.30 2.60L59.30 2.60L59.30 2.60Q59.63 2.60 60.01 2.88L60.01 2.88L60.01 2.88Q60.40 3.16 60.67 3.55L60.67 3.55L60.67 3.55Q60.94 3.93 60.94 4.17L60.94 4.17L60.94 4.17Q60.94 4.79 60.63 5.93L60.63 5.93L60.63 5.93Q60.31 7.07 59.82 8.39L59.82 8.39L59.82 8.39Q60.16 8.23 60.41 8.06L60.41 8.06L60.41 8.06Q60.66 7.90 61.11 7.55L61.11 7.55L61.11 7.55Q61.74 7.76 62.03 8.14L62.03 8.14L62.03 8.14Q62.33 8.53 62.33 8.97L62.33 8.97L62.33 8.97Q62.33 9.34 61.86 9.69L61.86 9.69L61.86 9.69Q61.39 10.04 60.72 10.27L60.72 10.27L60.72 10.27Q60.05 10.50 59.53 10.50L59.53 10.50ZM66.04 10.50L66.04 10.50Q65.37 10.50 64.64 10.06L64.64 10.06L64.64 10.06Q63.91 9.62 63.43 8.97L63.43 8.97L63.43 8.97Q62.96 8.33 62.96 7.76L62.96 7.76L62.96 7.76Q62.96 6.73 63.44 5.52L63.44 5.52L63.44 5.52Q63.92 4.30 64.78 3.45L64.78 3.45L64.78 3.45Q65.63 2.60 66.71 2.60L66.71 2.60L66.71 2.60Q67.48 2.60 68.10 2.94L68.10 2.94L68.10 2.94Q68.73 3.28 69.08 3.78L69.08 3.78L69.08 3.78Q69.43 4.28 69.43 4.76L69.43 4.76L69.43 4.76Q69.43 5.35 68.89 5.92L68.89 5.92L68.89 5.92Q68.36 6.48 67.41 6.91L67.41 6.91L67.41 6.91Q66.46 7.34 65.24 7.52L65.24 7.52L65.24 7.52Q65.23 7.69 65.23 8.02L65.23 8.02L65.23 8.02Q65.23 8.44 65.25 8.65L65.25 8.65L65.25 8.65Q65.95 8.58 66.64 8.27L66.64 8.27L66.64 8.27Q67.33 7.97 68.14 7.41L68.14 7.41L68.14 7.41Q68.68 7.57 68.96 7.94L68.96 7.94L68.96 7.94Q69.24 8.30 69.24 8.81L69.24 8.81L69.24 8.81Q69.24 9.23 68.73 9.63L68.73 9.63L68.73 9.63Q68.22 10.02 67.47 10.26L67.47 10.26L67.47 10.26Q66.71 10.50 66.04 10.50L66.04 10.50ZM65.45 6.47L65.45 6.47Q66.30 6.16 66.88 5.68L66.88 5.68L66.88 5.68Q67.45 5.21 67.45 4.87L67.45 4.87L67.45 4.87Q67.45 4.48 66.91 4.34L66.91 4.34L66.91 4.34Q66.37 4.73 66.00 5.28L66.00 5.28L66.00 5.28Q65.63 5.82 65.45 6.47L65.45 6.47Z"></path></g><!----><!----></svg>